<svg xmlns="http://www.w3.org/2000/svg" viewBox="0 0 1200 300"><rect width="1200" height="300" rx="10" fill="#090a0d" stroke="#343943"/><text x="45" y="45" font-family="monospace" font-size="18" font-weight="700" fill="#dc143c" letter-spacing="4">ARSENAL &amp; TECH STACK // LOADOUT</text><text x="600" y="83" text-anchor="middle" font-family="monospace" font-size="12" fill="#696969">SIMULATED LOADOUT — ILLUSTRATIVE TECHNOLOGIES</text><g font-family="monospace" text-anchor="middle" font-size="14" fill="#e8e1d5"><g><rect x="55" y="105" width="170" height="42" rx="5" fill="#111318" stroke="#8b0000"/><text x="140" y="131">WEAPONS OF CODE</text><rect x="245" y="105" width="170" height="42" rx="5" fill="#111318" stroke="#8b0000"/><text x="330" y="131">FRONTEND</text><rect x="435" y="105" width="170" height="42" rx="5" fill="#111318" stroke="#8b0000"/><text x="520" y="131">BACKEND</text><rect x="625" y="105" width="170" height="42" rx="5" fill="#111318" stroke="#8b0000"/><text x="710" y="131">DATABASE</text><rect x="815" y="105" width="170" height="42" rx="5" fill="#111318" stroke="#8b0000"/><text x="900" y="131">DEVOPS</text><rect x="1005" y="105" width="140" height="42" rx="5" fill="#111318" stroke="#8b0000"/><text x="1075" y="131">UTILITIES</text></g><text x="600" y="188" fill="#e8e1d5">HTML · CSS · JAVASCRIPT · TYPESCRIPT · REACT · NODE.JS</text><text x="600" y="216" fill="#a9a9a9">PYTHON · JAVA · C++ · MYSQL · POSTGRESQL · DOCKER · LINUX</text><text x="600" y="244" fill="#696969">GIT · GITHUB · VS CODE · GITHUB ACTIONS</text><path d="M80 270H1120" stroke="#8b0000" opacity=".6"/><circle cx="80" cy="270" r="4" fill="#dc143c"><animate attributeName="cx" values="80;1120;80" dur="8s" repeatCount="indefinite"/></circle></g></svg>