<svg xmlns="http://www.w3.org/2000/svg" width="900" height="280" viewBox="0 0 900 280" role="img" aria-label="Pink GitHub activity graph fallback"><defs><linearGradient id="bg" x1="0" y1="0" x2="1" y2="1"><stop stop-color="#fff5fa"/><stop offset="1" stop-color="#eadcff"/></linearGradient><linearGradient id="line" x1="0" x2="1"><stop stop-color="#ff69b4"/><stop offset="1" stop-color="#a86bd1"/></linearGradient></defs><rect x="2" y="2" width="896" height="276" rx="24" fill="url(#bg)" stroke="#f2b7d5" stroke-width="3"/><text x="32" y="38" font-family="ui-monospace,monospace" font-size="13" font-weight="700" fill="#9a4e78">✨ ACTIVITY ROOM / PIXELS IN MOTION</text><rect x="34" y="62" width="832" height="8" rx="4" fill="#f6d7e7"/><g fill="#ffd4e8"><rect x="44" y="95" width="10" height="10" rx="2"/><rect x="64" y="95" width="10" height="10" rx="2"/><rect x="84" y="95" width="10" height="10" rx="2"/><rect x="104" y="95" width="10" height="10" rx="2"/><rect x="124" y="95" width="10" height="10" rx="2"/><rect x="144" y="95" width="10" height="10" rx="2"/><rect x="164" y="95" width="10" height="10" rx="2"/><rect x="184" y="95" width="10" height="10" rx="2"/><rect x="204" y="95" width="10" height="10" rx="2"/><rect x="224" y="95" width="10" height="10" rx="2"/><rect x="244" y="95" width="10" height="10" rx="2"/><rect x="264" y="95" width="10" height="10" rx="2"/><rect x="284" y="95" width="10" height="10" rx="2"/><rect x="304" y="95" width="10" height="10" rx="2"/><rect x="324" y="95" width="10" height="10" rx="2"/><rect x="344" y="95" width="10" height="10" rx="2"/><rect x="364" y="95" width="10" height="10" rx="2"/><rect x="384" y="95" width="10" height="10" rx="2"/><rect x="404" y="95" width="10" height="10" rx="2"/><rect x="424" y="95" width="10" height="10" rx="2"/><rect x="444" y="95" width="10" height="10" rx="2"/><rect x="464" y="95" width="10" height="10" rx="2"/><rect x="484" y="95" width="10" height="10" rx="2"/><rect x="504" y="95" width="10" height="10" rx="2"/><rect x="524" y="95" width="10" height="10" rx="2"/><rect x="544" y="95" width="10" height="10" rx="2"/><rect x="564" y="95" width="10" height="10" rx="2"/><rect x="584" y="95" width="10" height="10" rx="2"/><rect x="604" y="95" width="10" height="10" rx="2"/><rect x="624" y="95" width="10" height="10" rx="2"/><rect x="644" y="95" width="10" height="10" rx="2"/><rect x="664" y="95" width="10" height="10" rx="2"/><rect x="684" y="95" width="10" height="10" rx="2"/><rect x="704" y="95" width="10" height="10" rx="2"/><rect x="724" y="95" width="10" height="10" rx="2"/><rect x="744" y="95" width="10" height="10" rx="2"/><rect x="764" y="95" width="10" height="10" rx="2"/><rect x="784" y="95" width="10" height="10" rx="2"/><rect x="804" y="95" width="10" height="10" rx="2"/><rect x="824" y="95" width="10" height="10" rx="2"/><rect x="844" y="95" width="10" height="10" rx="2"/></g><g fill="#f4b2d0"><rect x="44" y="115" width="10" height="10" rx="2"/><rect x="104" y="115" width="10" height="10" rx="2"/><rect x="184" y="115" width="10" height="10" rx="2"/><rect x="264" y="115" width="10" height="10" rx="2"/><rect x="344" y="115" width="10" height="10" rx="2"/><rect x="424" y="115" width="10" height="10" rx="2"/><rect x="504" y="115" width="10" height="10" rx="2"/><rect x="584" y="115" width="10" height="10" rx="2"/><rect x="664" y="115" width="10" height="10" rx="2"/><rect x="744" y="115" width="10" height="10" rx="2"/><rect x="824" y="115" width="10" height="10" rx="2"/></g><path d="M42 214 C150 168 220 218 330 184 S520 222 625 176 S770 205 858 160" fill="none" stroke="url(#line)" stroke-width="4" stroke-linecap="round"><animate attributeName="d" dur="5s" repeatCount="indefinite" values="M42 214 C150 168 220 218 330 184 S520 222 625 176 S770 205 858 160;M42 190 C150 220 220 176 330 205 S520 168 625 214 S770 180 858 198;M42 214 C150 168 220 218 330 184 S520 222 625 176 S770 205 858 160"/></path><text x="42" y="252" font-family="Georgia,serif" font-size="14" fill="#8f6b82">more commits · more experiments · more sparkle ♡</text></svg>