<svg xmlns="http://www.w3.org/2000/svg" width="1400" height="600" viewBox="0 0 1400 600" role="img" aria-label="E1IJIMA pink magical girl developer banner">
  <defs>
    <linearGradient id="bg" x1="0" y1="0" x2="1" y2="1">
      <stop stop-color="#2b1025"/><stop offset=".42" stop-color="#9f3f79"/><stop offset="1" stop-color="#ffd0e5"/>
    </linearGradient>
    <radialGradient id="glow"><stop stop-color="#fff" stop-opacity=".95"/><stop offset="1" stop-color="#ff8fc1" stop-opacity="0"/></radialGradient>
    <linearGradient id="panel" x1="0" y1="0" x2="1" y2="1"><stop stop-color="#fff" stop-opacity=".22"/><stop offset="1" stop-color="#fff" stop-opacity=".08"/></linearGradient>
    <linearGradient id="dress" x1="0" y1="0" x2="0" y2="1"><stop stop-color="#ffd0e4"/><stop offset=".55" stop-color="#ff77b2"/><stop offset="1" stop-color="#e94f96"/></linearGradient>
    <filter id="shadow"><feDropShadow dx="0" dy="18" stdDeviation="18" flood-color="#1d0717" flood-opacity=".35"/></filter>
    <pattern id="dots" width="42" height="42" patternUnits="userSpaceOnUse"><circle cx="5" cy="6" r="1.4" fill="#fff" opacity=".22"/><circle cx="31" cy="23" r="1.1" fill="#fff" opacity=".16"/></pattern>
  </defs>
  <rect width="1400" height="600" rx="42" fill="url(#bg)"/><rect width="1400" height="600" rx="42" fill="url(#dots)"/>
  <circle cx="1090" cy="150" r="260" fill="url(#glow)" opacity=".75"><animate attributeName="r" values="230;290;230" dur="7s" repeatCount="indefinite"/></circle>
  <circle cx="260" cy="480" r="170" fill="url(#glow)" opacity=".28"><animate attributeName="r" values="150;190;150" dur="5.2s" repeatCount="indefinite"/></circle>
  <path d="M0 485 C180 390 340 550 545 455 C770 350 940 500 1110 430 C1260 368 1340 430 1400 400 V600 H0Z" fill="#fff" opacity=".11"/>
  <g transform="translate(74 64)">
    <text x="0" y="20" fill="#ffd9eb" font-family="ui-monospace,SFMono-Regular,Menlo,monospace" font-size="15" font-weight="800" letter-spacing="5">E1IJIMA / PINK MAGICAL DEVELOPER</text>
    <text x="0" y="105" fill="#fff7fc" font-family="Georgia,serif" font-size="72" font-weight="700">E1IJIMA ♡</text>
    <text x="4" y="150" fill="#ffe9f3" font-family="Georgia,serif" font-size="24" font-style="italic">cute code • cozy design • tiny pieces of magic</text>
    <g filter="url(#shadow)">
      <rect x="0" y="190" width="650" height="225" rx="30" fill="url(#panel)" stroke="#fff" stroke-opacity=".28"/>
      <text x="28" y="228" fill="#fff1f8" font-family="ui-monospace,monospace" font-size="15">$ profile --mood</text>
      <text x="28" y="264" fill="#fff" font-family="ui-monospace,monospace" font-size="18">&gt; soft • creative • curious</text>
      <text x="28" y="300" fill="#fff" font-family="ui-monospace,monospace" font-size="18">&gt; web • UI • automation • AI</text>
      <text x="28" y="336" fill="#fff" font-family="ui-monospace,monospace" font-size="18">&gt; building little things with big pink energy</text>
      <rect x="28" y="370" width="560" height="5" rx="3" fill="#ffd1e5"><animate attributeName="width" values="70;550;210;70" dur="5s" repeatCount="indefinite"/></rect>
      <text x="28" y="398" fill="#ffe8f2" font-family="Georgia,serif" font-size="17" font-style="italic">same girl · different dreams · prettier code ♡</text>
    </g>
  </g>
  <g transform="translate(915 72)" filter="url(#shadow)">
    <ellipse cx="210" cy="448" rx="250" ry="42" fill="#220c20" opacity=".28"/>
    <path d="M45 350 C10 260 16 155 75 84 C122 28 190 2 258 28 C330 55 378 125 380 214 C382 286 345 337 310 360 L96 374 Z" fill="#f7d4e7" stroke="#7b2e61" stroke-width="6"/>
    <path d="M72 104 Q26 165 54 258 L99 230 L112 106 Z" fill="#ff7db8" stroke="#7b2e61" stroke-width="6"/>
    <path d="M349 104 Q395 165 367 258 L322 230 L309 106 Z" fill="#ff7db8" stroke="#7b2e61" stroke-width="6"/>
    <circle cx="102" cy="73" r="36" fill="#ff86bc" stroke="#7b2e61" stroke-width="6"/><circle cx="318" cy="73" r="36" fill="#ff86bc" stroke="#7b2e61" stroke-width="6"/>
    <circle cx="102" cy="73" r="15" fill="#fff5fb"/><circle cx="318" cy="73" r="15" fill="#fff5fb"/>
    <path d="M86 124 Q208 68 330 124 L314 252 Q292 318 208 336 Q124 318 102 252 Z" fill="#fff7fb" stroke="#8b3b70" stroke-width="6"/>
    <path d="M118 126 Q150 90 208 96 Q266 90 298 126" fill="none" stroke="#ff79b5" stroke-width="8" stroke-linecap="round"/>
    <ellipse cx="159" cy="193" rx="24" ry="35" fill="#4e2748"/><ellipse cx="257" cy="193" rx="24" ry="35" fill="#4e2748"/>
    <circle cx="165" cy="182" r="7" fill="#fff"/><circle cx="263" cy="182" r="7" fill="#fff"/>
    <circle cx="114" cy="228" r="18" fill="#ff9bc5" opacity=".7"/><circle cx="302" cy="228" r="18" fill="#ff9bc5" opacity=".7"/>
    <path d="M184 257 Q208 276 232 257" fill="none" stroke="#d35495" stroke-width="6" stroke-linecap="round"/>
    <path d="M112 326 Q208 292 304 326 L351 505 Q208 556 65 505 Z" fill="url(#dress)" stroke="#7b2e61" stroke-width="7"/>
    <path d="M153 329 L208 382 L263 329" fill="#fff" opacity=".36"/><path d="M164 382 L208 432 L252 382" fill="none" stroke="#fff8fb" stroke-width="8" stroke-linecap="round"/>
    <g transform="translate(54 380)"><path d="M0 0 C-35-28 -55 10 -12 30 C-40 65 2 71 20 37 C38 71 80 65 52 30 C92 9 70-29 35 0 C21-34 14-34 0 0Z" fill="#ff5fa6" stroke="#7b2e61" stroke-width="5"/><circle cx="20" cy="28" r="8" fill="#ffd4e6"/></g>
  </g>
  <g fill="#fff6fb" font-family="sans-serif" font-weight="700">
    <text x="655" y="95" font-size="34"><animate attributeName="y" values="95;72;95" dur="3.1s" repeatCount="indefinite"/>♡</text>
    <text x="790" y="500" font-size="30"><animate attributeName="y" values="500;472;500" dur="4.4s" repeatCount="indefinite"/>✦</text>
    <text x="1290" y="122" font-size="28"><animate attributeName="y" values="122;97;122" dur="3.8s" repeatCount="indefinite"/>♡</text>
    <text x="1195" y="465" font-size="30"><animate attributeName="y" values="465;438;465" dur="4.1s" repeatCount="indefinite"/>✧</text>
  </g>
  <g transform="translate(690 180)"><g><circle cx="0" cy="-17" r="16" fill="#fff"/><circle cx="16" cy="-5" r="16" fill="#fff"/><circle cx="10" cy="14" r="16" fill="#fff"/><circle cx="-10" cy="14" r="16" fill="#fff"/><circle cx="-16" cy="-5" r="16" fill="#fff"/><circle cx="0" cy="0" r="8" fill="#ffc3df"/><animateTransform attributeName="transform" type="rotate" from="0 0 0" to="360 0 0" dur="9s" repeatCount="indefinite"/></g></g>
  <text x="1352" y="548" fill="#ffeaf3" opacity=".85" font-family="ui-monospace,monospace" font-size="12" writing-mode="tb" letter-spacing="4">かわいいをコードに ♡</text>
</svg>