<svg xmlns="http://www.w3.org/2000/svg" width="900" height="300" viewBox="0 0 900 300" role="img" aria-label="E1IJIMA selected work card"><defs><linearGradient id="g" x1="0" x2="1"><stop stop-color="#ff71ad"/><stop offset="1" stop-color="#c08cff"/></linearGradient></defs><rect x="1" y="1" width="898" height="298" rx="26" fill="#fffafd" stroke="#efb6d0" stroke-width="2"/><rect x="24" y="24" width="270" height="252" rx="22" fill="url(#g)" opacity=".12"/><circle cx="160" cy="120" r="70" fill="#fff" opacity=".75"/><path d="M110 126c-2-46 23-74 54-74 37 0 61 31 56 79-3 36-20 58-53 60-34 2-54-25-57-65Z" fill="#ffe8f1"/><path d="M112 123c5-53 58-74 95-43 16 13 22 35 20 57-17-19-42-28-65-13-18 11-32 15-50-1Z" fill="#ff79b0"/><ellipse cx="141" cy="131" rx="7" ry="10" fill="#6b4760"/><ellipse cx="179" cy="131" rx="7" ry="10" fill="#6b4760"/><circle cx="139" cy="128" r="2.5" fill="#fff"/><circle cx="177" cy="128" r="2.5" fill="#fff"/><path d="M150 160 Q160 169 170 160" fill="none" stroke="#bd6d8d" stroke-width="3" stroke-linecap="round"/><text x="55" y="228" fill="#b2487e" font-family="Inter,Segoe UI,sans-serif" font-size="18" font-weight="800">EIJIMAV1</text><text x="55" y="251" fill="#8e6277" font-family="Inter,Segoe UI,sans-serif" font-size="13">my current playground ♡</text><g transform="translate(330 50)"><text x="0" y="0" fill="#a63c72" font-family="Inter,Segoe UI,sans-serif" font-size="22" font-weight="800">♡ SELECTED WORK</text><text x="0" y="45" fill="#5b4350" font-family="Inter,Segoe UI,sans-serif" font-size="27" font-weight="800">EIJIMAV1</text><text x="0" y="75" fill="#88677a" font-family="Inter,Segoe UI,sans-serif" font-size="15">Experiments, utilities and little ideas brought to life.</text><rect x="0" y="105" width="500" height="22" rx="11" fill="#f7dfe9"/><rect x="0" y="105" width="415" height="22" rx="11" fill="url(#g)"/><text x="518" y="121" fill="#a9557a" font-family="ui-monospace,monospace" font-size="13">83%</text><text x="0" y="165" fill="#d05b91" font-family="ui-monospace,monospace" font-size="14">01</text><text x="36" y="165" fill="#6f5360" font-family="ui-monospace,monospace" font-size="14">idea → prototype → polish</text><text x="0" y="194" fill="#d05b91" font-family="ui-monospace,monospace" font-size="14">02</text><text x="36" y="194" fill="#6f5360" font-family="ui-monospace,monospace" font-size="14">small details, big smiles ♡</text></g></svg>